<svg width="384" height="512" xmlns="http://www.w3.org/2000/svg" xmlns:xlink="http://www.w3.org/1999/xlink" overflow="hidden"><defs><clipPath id="clip0"><rect x="448" y="104" width="384" height="512"/></clipPath></defs><g clip-path="url(#clip0)" transform="translate(-448 -104)"><path d="M448 136 482.9 531.8 640 584 797.1 531.8 832 136 448 136ZM761.1 216 756.3 263.3 641 312.6 640.7 312.7 752.2 312.7 739.4 459.3 641.2 488 542.4 458.8 536 384.9 584.9 384.9 588.1 423.2 640.7 436.5 695.4 421.1 699.1 359.5 532.8 359 532.8 358.9 532.6 359 529 312.7 641.1 266 647.6 263.3 524.7 263.3 518.9 216 761.1 216Z" fill="#2196F3"/></g></svg>