<svg width="448" height="512" xmlns="http://www.w3.org/2000/svg" xmlns:xlink="http://www.w3.org/1999/xlink" overflow="hidden"><defs><clipPath id="clip0"><rect x="416" y="104" width="448" height="512"/></clipPath></defs><g clip-path="url(#clip0)" transform="translate(-416 -104)"><path d="M416 200C416 182.33 430.33 168 448 168L832 168C849.7 168 864 182.33 864 200 864 217.7 849.7 232 832 232L448 232C430.33 232 416 217.7 416 200ZM416 360C416 342.3 430.33 328 448 328L832 328C849.7 328 864 342.3 864 360 864 377.7 849.7 392 832 392L448 392C430.33 392 416 377.7 416 360ZM832 552 448 552C430.33 552 416 537.7 416 520 416 502.3 430.33 488 448 488L832 488C849.7 488 864 502.3 864 520 864 537.7 849.7 552 832 552Z" fill="#FFFFFF"/></g></svg>